<mxfile host="app.diagrams.net" modified="2023-05-28T07:52:54.874Z" agent="Mozilla/5.0 (Windows NT 10.0; Win64; x64) AppleWebKit/537.36 (KHTML, like Gecko) Chrome/113.0.0.0 Safari/537.36" etag="KJfp_s5FEjj0e6C6qd9U" version="21.3.4" type="device">
  <diagram name="Page-1" id="2yKewBS8yuENremNvSL9">
    <mxGraphModel dx="472" dy="677" grid="1" gridSize="10" guides="1" tooltips="1" connect="1" arrows="1" fold="1" page="1" pageScale="1" pageWidth="827" pageHeight="1169" math="0" shadow="0">
      <root>
        <mxCell id="0" />
        <mxCell id="1" parent="0" />
        <mxCell id="irh6Ad_E5sMAUb37vMK0-1" value="Pool" style="swimlane;childLayout=stackLayout;resizeParent=1;resizeParentMax=0;startSize=20;html=1;" vertex="1" parent="1">
          <mxGeometry x="110" y="160" width="580" height="1190" as="geometry" />
        </mxCell>
        <mxCell id="irh6Ad_E5sMAUb37vMK0-2" value="Unregister User" style="swimlane;startSize=20;html=1;" vertex="1" parent="irh6Ad_E5sMAUb37vMK0-1">
          <mxGeometry y="20" width="190" height="1170" as="geometry" />
        </mxCell>
        <mxCell id="irh6Ad_E5sMAUb37vMK0-7" value="Go to the online teacher trainer" style="rounded=1;whiteSpace=wrap;html=1;" vertex="1" parent="irh6Ad_E5sMAUb37vMK0-2">
          <mxGeometry x="20" y="50" width="150" height="60" as="geometry" />
        </mxCell>
        <mxCell id="irh6Ad_E5sMAUb37vMK0-8" value="Select sign-in as Trainee Teacher or Lecturer " style="rounded=1;whiteSpace=wrap;html=1;" vertex="1" parent="irh6Ad_E5sMAUb37vMK0-2">
          <mxGeometry x="20" y="160" width="150" height="60" as="geometry" />
        </mxCell>
        <mxCell id="irh6Ad_E5sMAUb37vMK0-9" value="Sign in with an Email and Password" style="rounded=1;whiteSpace=wrap;html=1;" vertex="1" parent="irh6Ad_E5sMAUb37vMK0-2">
          <mxGeometry x="20" y="290" width="150" height="60" as="geometry" />
        </mxCell>
        <mxCell id="irh6Ad_E5sMAUb37vMK0-11" value="Fill the form" style="rounded=1;whiteSpace=wrap;html=1;" vertex="1" parent="irh6Ad_E5sMAUb37vMK0-2">
          <mxGeometry x="20" y="470" width="150" height="60" as="geometry" />
        </mxCell>
        <mxCell id="irh6Ad_E5sMAUb37vMK0-12" value="Select Course or Modules" style="rounded=1;whiteSpace=wrap;html=1;" vertex="1" parent="irh6Ad_E5sMAUb37vMK0-2">
          <mxGeometry x="20" y="580" width="150" height="60" as="geometry" />
        </mxCell>
        <mxCell id="irh6Ad_E5sMAUb37vMK0-13" value="Check the form" style="rounded=1;whiteSpace=wrap;html=1;" vertex="1" parent="irh6Ad_E5sMAUb37vMK0-2">
          <mxGeometry x="20" y="690" width="150" height="60" as="geometry" />
        </mxCell>
        <mxCell id="irh6Ad_E5sMAUb37vMK0-14" value="Accept Terms and Conditions " style="rounded=1;whiteSpace=wrap;html=1;" vertex="1" parent="irh6Ad_E5sMAUb37vMK0-2">
          <mxGeometry x="20" y="810" width="150" height="60" as="geometry" />
        </mxCell>
        <mxCell id="irh6Ad_E5sMAUb37vMK0-15" value="Submit the form" style="rounded=1;whiteSpace=wrap;html=1;" vertex="1" parent="irh6Ad_E5sMAUb37vMK0-2">
          <mxGeometry x="20" y="910" width="150" height="60" as="geometry" />
        </mxCell>
        <mxCell id="irh6Ad_E5sMAUb37vMK0-3" value="Admin" style="swimlane;startSize=20;html=1;" vertex="1" parent="irh6Ad_E5sMAUb37vMK0-1">
          <mxGeometry x="190" y="20" width="210" height="1170" as="geometry" />
        </mxCell>
        <mxCell id="irh6Ad_E5sMAUb37vMK0-16" value="Add as a Registered User" style="rounded=1;whiteSpace=wrap;html=1;" vertex="1" parent="irh6Ad_E5sMAUb37vMK0-3">
          <mxGeometry x="39" y="1080" width="150" height="60" as="geometry" />
        </mxCell>
        <mxCell id="irh6Ad_E5sMAUb37vMK0-5" value="System" style="swimlane;startSize=20;html=1;" vertex="1" parent="irh6Ad_E5sMAUb37vMK0-1">
          <mxGeometry x="400" y="20" width="180" height="1170" as="geometry" />
        </mxCell>
        <mxCell id="irh6Ad_E5sMAUb37vMK0-10" value="Invalid Email" style="rounded=1;whiteSpace=wrap;html=1;" vertex="1" parent="irh6Ad_E5sMAUb37vMK0-5">
          <mxGeometry x="15" y="375" width="150" height="60" as="geometry" />
        </mxCell>
      </root>
    </mxGraphModel>
  </diagram>
</mxfile>
